<svg width="523" height="101" viewBox="0 0 523 101" fill="none" xmlns="http://www.w3.org/2000/svg">
<path d="M0.75 47V1.1875H9.75L28.5 31.7812V1.1875H37.0938V47H27.8125L9.34375 17.125V47H0.75Z" fill="white"/>
<path d="M45.0312 24.375C45.0312 19.7083 45.7292 15.7917 47.125 12.625C48.1667 10.2917 49.5833 8.19792 51.375 6.34375C53.1875 4.48958 55.1667 3.11458 57.3125 2.21875C60.1667 1.01042 63.4583 0.40625 67.1875 0.40625C73.9375 0.40625 79.3333 2.5 83.375 6.6875C87.4375 10.875 89.4688 16.6979 89.4688 24.1562C89.4688 31.5521 87.4583 37.3438 83.4375 41.5312C79.4167 45.6979 74.0417 47.7812 67.3125 47.7812C60.5 47.7812 55.0833 45.7083 51.0625 41.5625C47.0417 37.3958 45.0312 31.6667 45.0312 24.375ZM54.5625 24.0625C54.5625 29.25 55.7604 33.1875 58.1562 35.875C60.5521 38.5417 63.5938 39.875 67.2812 39.875C70.9688 39.875 73.9896 38.5521 76.3438 35.9062C78.7188 33.2396 79.9062 29.25 79.9062 23.9375C79.9062 18.6875 78.75 14.7708 76.4375 12.1875C74.1458 9.60417 71.0938 8.3125 67.2812 8.3125C63.4688 8.3125 60.3958 9.625 58.0625 12.25C55.7292 14.8542 54.5625 18.7917 54.5625 24.0625Z" fill="white"/>
<path d="M96.75 1.1875H115.062C118.688 1.1875 121.385 1.34375 123.156 1.65625C124.948 1.94792 126.542 2.57292 127.938 3.53125C129.354 4.48958 130.531 5.77083 131.469 7.375C132.406 8.95833 132.875 10.7396 132.875 12.7188C132.875 14.8646 132.292 16.8333 131.125 18.625C129.979 20.4167 128.417 21.7604 126.438 22.6562C129.229 23.4688 131.375 24.8542 132.875 26.8125C134.375 28.7708 135.125 31.0729 135.125 33.7188C135.125 35.8021 134.635 37.8333 133.656 39.8125C132.698 41.7708 131.375 43.3438 129.688 44.5312C128.021 45.6979 125.958 46.4167 123.5 46.6875C121.958 46.8542 118.24 46.9583 112.344 47H96.75V1.1875ZM106 8.8125V19.4062H112.062C115.667 19.4062 117.906 19.3542 118.781 19.25C120.365 19.0625 121.604 18.5208 122.5 17.625C123.417 16.7083 123.875 15.5104 123.875 14.0312C123.875 12.6146 123.479 11.4688 122.688 10.5938C121.917 9.69792 120.76 9.15625 119.219 8.96875C118.302 8.86458 115.667 8.8125 111.312 8.8125H106ZM106 27.0312V39.2812H114.562C117.896 39.2812 120.01 39.1875 120.906 39C122.281 38.75 123.396 38.1458 124.25 37.1875C125.125 36.2083 125.562 34.9062 125.562 33.2812C125.562 31.9062 125.229 30.7396 124.562 29.7812C123.896 28.8229 122.927 28.125 121.656 27.6875C120.406 27.25 117.677 27.0312 113.469 27.0312H106Z" fill="white"/>
<path d="M143.219 47V1.5625H152.469V39.2812H175.469V47H143.219Z" fill="white"/>
<path d="M182.094 47V1.1875H216.062V8.9375H191.344V19.0938H214.344V26.8125H191.344V39.2812H216.938V47H182.094Z" fill="white"/>
<path d="M242.594 47V1.1875H276.562V8.9375H251.844V19.0938H274.844V26.8125H251.844V39.2812H277.438V47H242.594Z" fill="white"/>
<path d="M282.938 32.0938L291.938 31.2188C292.479 34.2396 293.573 36.4583 295.219 37.875C296.885 39.2917 299.125 40 301.938 40C304.917 40 307.156 39.375 308.656 38.125C310.177 36.8542 310.938 35.375 310.938 33.6875C310.938 32.6042 310.615 31.6875 309.969 30.9375C309.344 30.1667 308.24 29.5 306.656 28.9375C305.573 28.5625 303.104 27.8958 299.25 26.9375C294.292 25.7083 290.812 24.1979 288.812 22.4062C286 19.8854 284.594 16.8125 284.594 13.1875C284.594 10.8542 285.25 8.67708 286.562 6.65625C287.896 4.61458 289.802 3.0625 292.281 2C294.781 0.9375 297.792 0.40625 301.312 0.40625C307.062 0.40625 311.385 1.66667 314.281 4.1875C317.198 6.70833 318.729 10.0729 318.875 14.2812L309.625 14.6875C309.229 12.3333 308.375 10.6458 307.062 9.625C305.771 8.58333 303.823 8.0625 301.219 8.0625C298.531 8.0625 296.427 8.61458 294.906 9.71875C293.927 10.4271 293.438 11.375 293.438 12.5625C293.438 13.6458 293.896 14.5729 294.812 15.3438C295.979 16.3229 298.812 17.3438 303.312 18.4062C307.812 19.4688 311.135 20.5729 313.281 21.7188C315.448 22.8438 317.135 24.3958 318.344 26.375C319.573 28.3333 320.188 30.7604 320.188 33.6562C320.188 36.2812 319.458 38.7396 318 41.0312C316.542 43.3229 314.479 45.0312 311.812 46.1562C309.146 47.2604 305.823 47.8125 301.844 47.8125C296.052 47.8125 291.604 46.4792 288.5 43.8125C285.396 41.125 283.542 37.2188 282.938 32.0938Z" fill="white"/>
<path d="M327.969 47V1.1875H361.938V8.9375H337.219V19.0938H360.219V26.8125H337.219V39.2812H362.812V47H327.969Z" fill="white"/>
<path d="M370.75 47V1.1875H379.75L398.5 31.7812V1.1875H407.094V47H397.812L379.344 17.125V47H370.75Z" fill="white"/>
<path d="M446.219 30.1562L455.188 33C453.812 38 451.521 41.7188 448.312 44.1562C445.125 46.5729 441.073 47.7812 436.156 47.7812C430.073 47.7812 425.073 45.7083 421.156 41.5625C417.24 37.3958 415.281 31.7083 415.281 24.5C415.281 16.875 417.25 10.9583 421.188 6.75C425.125 2.52083 430.302 0.40625 436.719 0.40625C442.323 0.40625 446.875 2.0625 450.375 5.375C452.458 7.33333 454.021 10.1458 455.062 13.8125L445.906 16C445.365 13.625 444.229 11.75 442.5 10.375C440.792 9 438.708 8.3125 436.25 8.3125C432.854 8.3125 430.094 9.53125 427.969 11.9688C425.865 14.4062 424.812 18.3542 424.812 23.8125C424.812 29.6042 425.854 33.7292 427.938 36.1875C430.021 38.6458 432.729 39.875 436.062 39.875C438.521 39.875 440.635 39.0938 442.406 37.5312C444.177 35.9688 445.448 33.5104 446.219 30.1562Z" fill="white"/>
<path d="M462.875 47V1.1875H472.125V47H462.875Z" fill="white"/>
<path d="M522.281 47H512.219L508.219 36.5938H489.906L486.125 47H476.312L494.156 1.1875H503.938L522.281 47ZM505.25 28.875L498.938 11.875L492.75 28.875H505.25Z" fill="white"/>
<path d="M177.281 100V71.3672H196.598V74.7461H181.07V83.6133H194.508V86.9922H181.07V100H177.281Z" fill="white"/>
<path d="M200.387 86.0547C200.387 81.3021 201.663 77.5846 204.215 74.9023C206.767 72.207 210.061 70.8594 214.098 70.8594C216.741 70.8594 219.124 71.4909 221.246 72.7539C223.368 74.0169 224.983 75.7812 226.09 78.0469C227.21 80.2995 227.77 82.8581 227.77 85.7227C227.77 88.6263 227.184 91.224 226.012 93.5156C224.84 95.8073 223.18 97.5456 221.031 98.7305C218.883 99.9023 216.565 100.488 214.078 100.488C211.383 100.488 208.974 99.8372 206.852 98.5352C204.729 97.2331 203.121 95.4557 202.027 93.2031C200.934 90.9505 200.387 88.5677 200.387 86.0547ZM204.293 86.1133C204.293 89.5638 205.217 92.2852 207.066 94.2773C208.928 96.2565 211.259 97.2461 214.059 97.2461C216.91 97.2461 219.254 96.2435 221.09 94.2383C222.939 92.2331 223.863 89.388 223.863 85.7031C223.863 83.3724 223.466 81.3411 222.672 79.6094C221.891 77.8646 220.738 76.5169 219.215 75.5664C217.704 74.6029 216.005 74.1211 214.117 74.1211C211.435 74.1211 209.124 75.0456 207.184 76.8945C205.257 78.7305 204.293 81.8034 204.293 86.1133Z" fill="white"/>
<path d="M232.73 100V71.3672H245.426C247.978 71.3672 249.918 71.6276 251.246 72.1484C252.574 72.6562 253.635 73.5612 254.43 74.8633C255.224 76.1654 255.621 77.6042 255.621 79.1797C255.621 81.2109 254.964 82.9232 253.648 84.3164C252.333 85.7096 250.302 86.5951 247.555 86.9727C248.557 87.4544 249.319 87.9297 249.84 88.3984C250.947 89.4141 251.995 90.6836 252.984 92.207L257.965 100H253.199L249.41 94.043C248.303 92.3242 247.392 91.0091 246.676 90.0977C245.96 89.1862 245.315 88.5482 244.742 88.1836C244.182 87.819 243.609 87.5651 243.023 87.4219C242.594 87.3307 241.891 87.2852 240.914 87.2852H236.52V100H232.73ZM236.52 84.0039H244.664C246.396 84.0039 247.75 83.8281 248.727 83.4766C249.703 83.112 250.445 82.5391 250.953 81.7578C251.461 80.9635 251.715 80.1042 251.715 79.1797C251.715 77.8255 251.22 76.7122 250.23 75.8398C249.254 74.9674 247.704 74.5312 245.582 74.5312H236.52V84.0039Z" fill="white"/>
<path d="M272.594 100V71.3672H278.297L285.074 91.6406C285.699 93.5286 286.155 94.9414 286.441 95.8789C286.767 94.8372 287.275 93.3073 287.965 91.2891L294.82 71.3672H299.918V100H296.266V76.0352L287.945 100H284.527L276.246 75.625V100H272.594Z" fill="white"/>
<path d="M306.109 100V71.3672H326.812V74.7461H309.898V83.5156H325.738V86.875H309.898V96.6211H327.477V100H306.109Z" fill="white"/>
<path d="M332.672 100V71.3672H336.559L351.598 93.8477V71.3672H355.23V100H351.344L336.305 77.5V100H332.672Z" fill="white"/>
</svg>
